HIERARCHY
ROOT Hips
{
	OFFSET 0.000000 0.000000 0.000000
	CHANNELS 6 Xposition Yposition Zposition Yrotation Xrotation Zrotation
	JOINT Chest
	{
		OFFSET 0.000000 -0.009281 11.569106
		CHANNELS 3 Yrotation Xrotation Zrotation
		JOINT Chest2
		{
			OFFSET -0.000000 0.016865 9.269641
			CHANNELS 3 Yrotation Xrotation Zrotation
			JOINT Chest3
			{
				OFFSET -0.000000 0.000001 8.374491
				CHANNELS 3 Yrotation Xrotation Zrotation
				JOINT Chest4
				{
					OFFSET -0.000000 0.000001 8.374493
					CHANNELS 3 Yrotation Xrotation Zrotation
					JOINT Neck
					{
						OFFSET -0.000000 0.000002 12.152554
						CHANNELS 3 Yrotation Xrotation Zrotation
						JOINT Head
						{
							OFFSET -0.000000 0.040101 7.802319
							CHANNELS 3 Yrotation Xrotation Zrotation
							End Site
							{
								OFFSET -0.000000 0.020947 14.853096
							}
						}
					}
					JOINT RightCollar
					{
						OFFSET 2.894404 0.000001 6.791374
						CHANNELS 3 Yrotation Xrotation Zrotation
						JOINT RightShoulder
						{
							OFFSET 13.574684 0.000001 0.000000
							CHANNELS 3 Yrotation Xrotation Zrotation
							JOINT RightElbow
							{
								OFFSET 23.923903 0.000002 0.000000
								CHANNELS 3 Yrotation Xrotation Zrotation
								JOINT RightWrist
								{
									OFFSET 19.846718 0.012767 0.000000
									CHANNELS 3 Yrotation Xrotation Zrotation
									End Site
									{
										OFFSET 14.973145 0.000001 0.000000
									}
								}
							}
						}
					}
					JOINT LeftCollar
					{
						OFFSET -2.894404 0.000001 6.791374
						CHANNELS 3 Yrotation Xrotation Zrotation
						JOINT LeftShoulder
						{
							OFFSET -13.574684 -0.000001 0.000000
							CHANNELS 3 Yrotation Xrotation Zrotation
							JOINT LeftElbow
							{
								OFFSET -23.923903 -0.000002 0.000000
								CHANNELS 3 Yrotation Xrotation Zrotation
								JOINT LeftWrist
								{
									OFFSET -19.846718 0.012763 0.000000
									CHANNELS 3 Yrotation Xrotation Zrotation
									End Site
									{
										OFFSET -14.973145 -0.000001 0.000000
									}
								}
							}
						}
					}
				}
			}
		}
	}
	JOINT RightHip
	{
		OFFSET 9.469263 0.004643 0.045487
		CHANNELS 3 Yrotation Xrotation Zrotation
		JOINT RightKnee
		{
			OFFSET 0.000000 0.002661 -40.478676
			CHANNELS 3 Yrotation Xrotation Zrotation
			JOINT RightAnkle
			{
				OFFSET 0.000000 0.049106 -35.224068
				CHANNELS 3 Yrotation Xrotation Zrotation
				JOINT RightToe
				{
					OFFSET -0.000001 12.539529 -6.151390
					CHANNELS 3 Yrotation Xrotation Zrotation
					End Site
					{
						OFFSET -0.000001 5.044994 -1.291870
					}
				}
			}
		}
	}
	JOINT LeftHip
	{
		OFFSET -9.469263 0.004641 0.045487
		CHANNELS 3 Yrotation Xrotation Zrotation
		JOINT LeftKnee
		{
			OFFSET 0.000000 0.002661 -40.478676
			CHANNELS 3 Yrotation Xrotation Zrotation
			JOINT LeftAnkle
			{
				OFFSET 0.000000 0.049106 -35.224068
				CHANNELS 3 Yrotation Xrotation Zrotation
				JOINT LeftToe
				{
					OFFSET -0.000001 12.539529 -6.151390
					CHANNELS 3 Yrotation Xrotation Zrotation
					End Site
					{
						OFFSET -0.000001 5.044994 -1.291870
					}
				}
			}
		}
	}
}
MOTION
Frames: 6
Frame Time: 0.016667
-19.115097 -71.105896 83.449501 0.638695 2.227560 -117.092938 -2.002363 -3.507557 2.448025 -0.591674 -1.708648 1.309686 -0.591674 -1.708649 1.309690 -0.440062 -1.282762 0.980539 1.264878 -11.008821 -3.727867 0.776294 15.711710 -6.621053 10.680939 6.129784 -1.097210 43.339005 -15.996793 -16.119156 -29.812594 -61.222906 88.301751 -46.608678 42.590024 50.004016 -7.802619 5.328367 -6.857993 -41.031084 -7.873744 21.319358 -3.469287 -65.063562 -59.137936 31.111973 16.041594 -74.649699 -6.437584 7.663236 -6.816714 4.209119 -15.398294 -13.403093 3.355296 6.703163 -0.906026 1.187040 0.207095 0.204288 -0.147350 3.113279 0.538482 2.452957 -4.619835 -3.457730 0.484074 -1.269294 11.746551 -1.494808 0.534956 -0.508589 
-19.322714 -70.636627 83.473801 0.776733 2.351641 -116.903114 -2.036112 -3.333379 2.231109 -0.566821 -1.697480 1.320639 -0.566821 -1.697481 1.320638 -0.421419 -1.274343 0.988838 1.303534 -11.089172 -3.730641 0.853308 15.564256 -6.606446 10.653906 6.154996 -1.104827 43.272534 -15.849717 -16.203594 -30.136977 -61.128861 88.627292 -46.516740 42.543592 50.066239 -7.830533 5.413609 -6.845043 -40.990284 -7.830931 21.395185 -3.504153 -65.147533 -59.209790 31.195759 15.830060 -74.532622 -6.176517 7.960202 -5.678371 3.578751 -15.099955 -12.364167 4.030640 6.875130 0.072899 0.602366 -0.102588 0.186116 0.064414 3.404362 -2.101872 2.926296 -3.872990 -6.798404 0.114423 -1.977227 11.479944 -1.664011 0.535662 -0.621916 
-19.667358 -70.040962 83.492447 1.080538 2.279645 -116.853390 -1.869942 -3.055868 2.113490 -0.539401 -1.681556 1.333227 -0.539401 -1.681555 1.333225 -0.400854 -1.262351 0.998364 1.366117 -11.201166 -3.729646 0.979375 15.359227 -6.573096 10.656457 6.256770 -1.082716 43.162455 -15.862600 -16.293821 -30.462521 -61.049788 88.998171 -46.510385 42.585099 50.094824 -7.890800 5.547794 -6.804886 -40.999450 -7.787062 21.468616 -3.467132 -65.192612 -59.260743 31.152681 15.583020 -74.490938 -5.078664 7.980882 -3.380596 2.780517 -14.518670 -10.282599 4.430076 7.904024 -0.086274 0.091434 -0.830556 0.117801 0.502662 3.909798 -5.066214 3.403832 -3.208092 -9.068600 -0.094866 -2.465420 10.353190 -1.942544 0.388840 -0.560659 
-20.183998 -69.327003 83.496758 1.372805 2.068943 -116.954039 -1.603559 -2.829687 2.115535 -0.520002 -1.664030 1.338738 -0.520002 -1.664030 1.338737 -0.386330 -1.249170 1.002568 1.445178 -11.324571 -3.728483 1.137460 15.133654 -6.532085 10.647983 6.296235 -1.074786 43.007567 -15.953961 -16.283815 -30.564157 -61.002892 89.232576 -46.573288 42.590946 50.050619 -7.948563 5.636643 -6.759706 -41.097600 -7.709130 21.491370 -3.263300 -65.155422 -59.362137 30.991731 15.358428 -74.593111 -3.755430 8.128798 0.102654 2.414842 -14.287081 -8.722081 4.537328 9.225700 -0.125368 -0.360654 -1.501452 0.040345 1.039223 4.587681 -8.113089 3.802297 -2.738711 -10.241482 -0.313382 -2.799739 8.419922 -2.096090 0.173078 -0.260611 
-20.810431 -68.622841 83.476753 1.427807 1.734443 -117.334686 -1.356551 -2.878378 2.328035 -0.514271 -1.643548 1.356687 -0.514271 -1.643549 1.356687 -0.382030 -1.233811 1.016059 1.532064 -11.428956 -3.726747 1.309676 14.943621 -6.487481 10.600580 6.247439 -1.123939 42.870369 -16.018950 -16.150110 -30.450660 -60.999573 89.292757 -46.589755 42.500097 50.001882 -7.958615 5.639792 -6.751553 -41.254209 -7.630377 21.455142 -2.848600 -65.047655 -59.611261 30.890012 15.340904 -74.809641 -2.457032 8.261968 4.085898 1.852627 -14.422419 -7.717583 5.329357 10.485217 0.965155 -0.956450 -2.064755 -0.032447 1.653872 5.161007 -10.626372 3.979501 -2.513314 -10.718280 -0.540700 -2.957575 6.171060 -2.083596 -0.066734 0.049862 
-21.381840 -68.070747 83.454079 1.298366 1.319825 -117.781913 -1.122434 -3.127409 2.572087 -0.517063 -1.619840 1.369244 -0.517064 -1.619839 1.369243 -0.384144 -1.216047 1.025495 1.612287 -11.515847 -3.717531 1.471357 14.785865 -6.432255 10.565328 6.250675 -1.142714 42.795465 -16.086921 -16.083417 -30.317666 -61.005638 89.296056 -46.573626 42.357490 49.972905 -7.964599 5.665764 -6.732304 -41.387606 -7.677170 21.444883 -2.313839 -64.918742 -59.996757 30.805820 15.469366 -75.029027 -1.423488 8.303839 7.569824 1.087537 -14.671851 -6.073767 6.689711 11.651436 2.397980 -1.585632 -2.605348 -0.019186 2.263338 5.510457 -12.435612 3.992089 -2.459315 -10.932758 -0.951053 -2.982368 4.187307 -1.783210 -0.231482 0.121359 
